<?xml version="1.0" encoding="utf-8"?>
<svg viewBox="199.43 151.525 43.942 41.023" xmlns="http://www.w3.org/2000/svg">
  <path d="M 227.307 152.824 L 226.115 155.421 C 225.938 155.808 225.652 156.136 225.293 156.367 C 224.935 156.597 224.517 156.719 224.091 156.719 L 203.682 156.719 C 202.452 156.719 201.455 157.717 201.455 158.947 L 201.455 182.309 C 201.455 183.539 202.452 184.537 203.682 184.537 L 241.145 184.537 C 242.375 184.537 243.372 183.539 243.372 182.309 L 243.372 153.753 C 243.372 152.522 242.375 151.525 241.145 151.525 L 229.332 151.525 C 228.905 151.525 228.488 151.647 228.129 151.878 C 227.77 152.108 227.485 152.436 227.307 152.824 Z" fill="#948E8C"/>
  <path d="M 241.347 186.036 L 241.347 167.897 C 241.347 166.667 240.35 165.669 239.12 165.669 L 218.711 165.669 C 218.285 165.669 217.868 165.547 217.509 165.317 C 217.15 165.087 216.864 164.758 216.687 164.371 L 215.495 161.774 C 215.317 161.386 215.032 161.058 214.673 160.828 C 214.314 160.597 213.897 160.475 213.471 160.475 L 201.657 160.475 C 200.427 160.475 199.43 161.472 199.43 162.703 L 199.43 190.321 C 199.43 191.551 200.427 192.548 201.657 192.548 L 239.12 192.548 C 239.25 192.548 239.377 192.537 239.501 192.515 C 239.654 192.537 239.811 192.548 239.97 192.548 C 241.849 192.548 243.372 191.025 243.372 189.147 C 243.372 187.758 242.54 186.565 241.347 186.036 Z" style="fill: rgb(248, 140, 16);"/>
  <path d="M 241.347 178.787 L 241.347 188.759 L 241.351 188.759 C 241.351 189.317 241.804 189.77 242.362 189.77 C 242.92 189.77 243.372 189.317 243.372 188.759 L 243.372 178.787 L 241.347 178.787 Z" fill="#948E8C"/>
</svg>